<svg xmlns="http://www.w3.org/2000/svg" viewBox="0 0 480 210"><rect width="480" height="210" fill="#fff3e8"/><rect x="111" y="37" width="36" height="36" rx="5" fill="#a04c16"/><rect x="154" y="37" width="36" height="36" rx="5" fill="#a04c16"/><rect x="197" y="37" width="36" height="36" rx="5" fill="#a04c16"/><rect x="240" y="37" width="36" height="36" rx="5" fill="#dc934e"/><rect x="283" y="37" width="36" height="36" rx="5" fill="#dc934e"/><rect x="326" y="37" width="36" height="36" rx="5" fill="#dc934e"/><rect x="111" y="80" width="36" height="36" rx="5" fill="#a04c16"/><rect x="154" y="80" width="36" height="36" rx="5" fill="#a04c16"/><rect x="197" y="80" width="36" height="36" rx="5" fill="#a04c16"/><rect x="240" y="80" width="36" height="36" rx="5" fill="#dc934e"/><rect x="283" y="80" width="36" height="36" rx="5" fill="#dc934e"/><rect x="326" y="80" width="36" height="36" rx="5" fill="#dc934e"/><rect x="111" y="123" width="36" height="36" rx="5" fill="#a04c16"/><rect x="154" y="123" width="36" height="36" rx="5" fill="#a04c16"/><rect x="197" y="123" width="36" height="36" rx="5" fill="#a04c16"/><rect x="240" y="123" width="36" height="36" rx="5" fill="#dc934e"/><rect x="283" y="123" width="36" height="36" rx="5" fill="#dc934e"/><rect x="326" y="123" width="36" height="36" rx="5" fill="#dc934e"/><line x1="240" y1="25" x2="240" y2="180" stroke="#fff3e8" stroke-width="4" stroke-linecap="round"/></svg>
