<svg xmlns="http://www.w3.org/2000/svg" viewBox="0 0 480 210"><rect width="480" height="210" fill="#faf5e5"/><rect x="169" y="12" width="142" height="178" rx="18" fill="#65511e"/><rect x="186" y="29" width="108" height="35" rx="4" fill="#faf5e5"/><text x="255" y="54" text-anchor="middle" fill="#65511e" font-family="sans-serif" font-size="23" font-weight="600">125</text><rect x="186" y="78" width="30" height="18" rx="3" fill="#faf5e5"/><rect x="224" y="78" width="30" height="18" rx="3" fill="#faf5e5"/><rect x="262" y="78" width="30" height="18" rx="3" fill="#faf5e5"/><rect x="186" y="103" width="30" height="18" rx="3" fill="#faf5e5"/><rect x="224" y="103" width="30" height="18" rx="3" fill="#faf5e5"/><rect x="262" y="103" width="30" height="18" rx="3" fill="#faf5e5"/><rect x="186" y="128" width="30" height="18" rx="3" fill="#faf5e5"/><rect x="224" y="128" width="30" height="18" rx="3" fill="#faf5e5"/><rect x="262" y="128" width="30" height="18" rx="3" fill="#faf5e5"/><rect x="186" y="153" width="30" height="18" rx="3" fill="#faf5e5"/><rect x="224" y="153" width="30" height="18" rx="3" fill="#faf5e5"/><rect x="262" y="153" width="30" height="18" rx="3" fill="#faf5e5"/></svg>
